<svg width="820" height="220" viewBox="0 0 820 220" fill="none" xmlns="http://www.w3.org/2000/svg" role="img" aria-labelledby="title desc">
  <title id="title">ForGyato</title>
  <desc id="desc">Logo ForGyato com monograma e wordmark</desc>
  <defs>
    <linearGradient id="markGradient" x1="22" y1="20" x2="196" y2="198" gradientUnits="userSpaceOnUse">
      <stop offset="0" stop-color="#7C6CFF"/>
      <stop offset="0.48" stop-color="#00D4AA"/>
      <stop offset="1" stop-color="#36A3FF"/>
    </linearGradient>
    <linearGradient id="wordGradient" x1="246" y1="62" x2="704" y2="160" gradientUnits="userSpaceOnUse">
      <stop offset="0" stop-color="#F3F5FF"/>
      <stop offset="0.58" stop-color="#E8EAF0"/>
      <stop offset="1" stop-color="#00D4AA"/>
    </linearGradient>
    <filter id="softShadow" x="-20%" y="-20%" width="140%" height="140%" color-interpolation-filters="sRGB">
      <feDropShadow dx="0" dy="18" stdDeviation="22" flood-color="#000000" flood-opacity="0.35"/>
    </filter>
  </defs>

  <g filter="url(#softShadow)">
    <path d="M112 12L191.674 58V150L112 196L32.3257 150V58L112 12Z" fill="#141824" stroke="url(#markGradient)" stroke-width="10"/>
    <path d="M112 34L172.622 69V139L112 174L51.3782 139V69L112 34Z" fill="url(#markGradient)" opacity="0.16"/>
    <path d="M70 128V68H145C159.359 68 171 79.6406 171 94C171 108.359 159.359 120 145 120H111" stroke="#F3F5FF" stroke-width="18" stroke-linecap="round" stroke-linejoin="round"/>
    <path d="M111 120H154C163.389 120 171 127.611 171 137C171 146.389 163.389 154 154 154H98" stroke="#00D4AA" stroke-width="18" stroke-linecap="round" stroke-linejoin="round"/>
    <path d="M98 154V94" stroke="#F3F5FF" stroke-width="18" stroke-linecap="round"/>
  </g>

  <path d="M250 151V62H313V79H270V99H308V116H270V151H250ZM357.5 153C337.2 153 322.8 138.7 322.8 119.5C322.8 100.3 337.2 86 357.5 86C377.9 86 392.3 100.3 392.3 119.5C392.3 138.7 377.9 153 357.5 153ZM357.5 136.3C366.4 136.3 373 129.6 373 119.5C373 109.4 366.4 102.7 357.5 102.7C348.7 102.7 342.1 109.4 342.1 119.5C342.1 129.6 348.7 136.3 357.5 136.3ZM404.7 151V88H423.2V98.9C427.3 90.8 434.6 86.8 444 87.1V105.4C431.6 104.2 423.2 109 423.2 122.1V151H404.7ZM489.6 153C463.2 153 444.4 133.7 444.4 106.7C444.4 80.1 463.3 60.2 490.6 60.2C511.1 60.2 528.3 71.1 535 89.4H513.4C508.8 81.4 500.9 77 490.4 77C474.7 77 465 88.8 465 106.8C465 125.1 475.2 136.2 491.2 136.2C504.3 136.2 513.9 129.6 517.2 118.4H488.2V102.2H537.8V112.1C537.8 136.2 518.9 153 489.6 153ZM581.3 153C561.3 153 547.6 138.8 547.6 119.5C547.6 100 561.3 86 581.3 86C589.5 86 596.7 88.6 601.6 93.5V88H620.1V151H601.6V145.5C596.7 150.4 589.5 153 581.3 153ZM584.4 136.3C594 136.3 601.1 129.4 601.1 119.5C601.1 109.6 594 102.7 584.4 102.7C574.6 102.7 566.9 109.7 566.9 119.5C566.9 129.3 574.6 136.3 584.4 136.3ZM659.7 151C646.3 151 638.7 143.5 638.7 129.9V104.1H627.6V88H638.7V70.3H657.2V88H674.4V104.1H657.2V127.3C657.2 132.4 659.5 134.7 664.2 134.7H674.4V151H659.7ZM716.6 153C696.3 153 681.9 138.7 681.9 119.5C681.9 100.3 696.3 86 716.6 86C737 86 751.4 100.3 751.4 119.5C751.4 138.7 737 153 716.6 153ZM716.6 136.3C725.5 136.3 732.1 129.6 732.1 119.5C732.1 109.4 725.5 102.7 716.6 102.7C707.8 102.7 701.2 109.4 701.2 119.5C701.2 129.6 707.8 136.3 716.6 136.3Z" fill="url(#wordGradient)"/>
  <path d="M252 178H462" stroke="#252A3A" stroke-width="2" stroke-linecap="round"/>
  <text x="482" y="184" fill="#8892A4" font-family="Manrope, Arial, sans-serif" font-size="20" font-weight="700" letter-spacing="3">FITNESS SYSTEM</text>
</svg>
