<svg width="820" height="220" viewBox="0 0 820 220" fill="none" xmlns="http://www.w3.org/2000/svg" role="img" aria-labelledby="title desc">
  <title id="title">ForGyato</title>
  <desc id="desc">Logo ForGyato com monograma e wordmark</desc>
  <defs>
    <linearGradient id="markGradient" x1="22" y1="20" x2="196" y2="198" gradientUnits="userSpaceOnUse">
      <stop offset="0" stop-color="#7C6CFF"/>
      <stop offset="0.48" stop-color="#00D4AA"/>
      <stop offset="1" stop-color="#36A3FF"/>
    </linearGradient>
    <linearGradient id="wordGradient" x1="246" y1="62" x2="704" y2="160" gradientUnits="userSpaceOnUse">
      <stop offset="0" stop-color="#F3F5FF"/>
      <stop offset="0.58" stop-color="#E8EAF0"/>
      <stop offset="1" stop-color="#00D4AA"/>
    </linearGradient>
    <filter id="softShadow" x="-20%" y="-20%" width="140%" height="140%" color-interpolation-filters="sRGB">
      <feDropShadow dx="0" dy="18" stdDeviation="22" flood-color="#000000" flood-opacity="0.35"/>
    </filter>
  </defs>

  <g filter="url(#softShadow)">
    <path d="M112 12L191.674 58V150L112 196L32.3257 150V58L112 12Z" fill="#141824" stroke="url(#markGradient)" stroke-width="10"/>
    <path d="M112 34L172.622 69V139L112 174L51.3782 139V69L112 34Z" fill="url(#markGradient)" opacity="0.16"/>
    <path d="M70 128V68H145C159.359 68 171 79.6406 171 94C171 108.359 159.359 120 145 120H111" stroke="#F3F5FF" stroke-width="18" stroke-linecap="round" stroke-linejoin="round"/>
    <path d="M111 120H154C163.389 120 171 127.611 171 137C171 146.389 163.389 154 154 154H98" stroke="#00D4AA" stroke-width="18" stroke-linecap="round" stroke-linejoin="round"/>
    <path d="M98 154V94" stroke="#F3F5FF" stroke-width="18" stroke-linecap="round"/>
  </g>

  <text x="250" y="135" font-family="Manrope, Arial, sans-serif" font-size="74" font-weight="800" letter-spacing="0">
    <tspan fill="#F3F5FF">ForG</tspan><tspan fill="#00D4AA">yato</tspan>
  </text>
  <path d="M252 168H424" stroke="#252A3A" stroke-width="2" stroke-linecap="round"/>
  <text x="444" y="174" fill="#8892A4" font-family="Manrope, Arial, sans-serif" font-size="18" font-weight="700" letter-spacing="3">FITNESS SYSTEM</text>
</svg>
